<?xml version="1.0" encoding="UTF-8"?><svg id="Layer_1" xmlns="http://www.w3.org/2000/svg" xmlns:xlink="http://www.w3.org/1999/xlink" viewBox="0 0 500 500"><defs><style>.cls-1{fill:url(#linear-gradient);}</style><linearGradient id="linear-gradient" x1="101.68" y1="377.26" x2="398.32" y2="80.63" gradientTransform="matrix(1, 0, 0, 1, 0, 0)" gradientUnits="userSpaceOnUse"><stop offset="0" stop-color="blue"/><stop offset=".1" stop-color="#0d05ff"/><stop offset=".29" stop-color="#2f12ff"/><stop offset=".55" stop-color="#6728ff"/><stop offset=".86" stop-color="#b346ff"/><stop offset="1" stop-color="#d855ff"/></linearGradient></defs><path class="cls-1" d="M399.34,166.54c0,53.66-12.95,94.83-38.85,123.51-13.87,15.36-31.79,26.64-51.18,33.68-15.57,5.66-34.11,7.2-40.46,25.51-4.01,11.58-3.52,24.43,1.24,35.72,5.85,13.85,19.59,24.13,27.69,36.7,3.7,5.74,6.28,12.17,7.41,18.91,.42,2.5,.64,5.04,.68,7.58,.15,11.67-3.82,23.16-11.11,32.27-20.92,26.15-68.69,26.04-89.52,0-13.09-16.36-14.4-39.32-4.02-57.42,6.61-11.53,17.14-20.06,24.55-31.01,8.46-12.5,10.32-28.48,5.37-42.75-6.35-18.31-24.89-19.85-40.46-25.51-19.38-7.04-37.31-18.33-51.18-33.68-25.9-28.68-38.85-69.85-38.85-123.51s12.95-94.82,38.85-123.51C165.4,14.35,202.24,0,250,0s84.6,14.35,110.49,43.03c25.9,28.69,38.85,69.86,38.85,123.51Zm-225.17,0c0,34.12,6.43,60.25,19.3,78.39,12.87,18.15,31.7,27.22,56.53,27.22s43.56-9.07,56.29-27.22c12.71-18.14,19.07-44.27,19.07-78.39s-6.36-60.16-19.07-78.16c-12.73-17.98-31.48-26.98-56.29-26.98s-43.66,9-56.53,26.98c-12.87,17.99-19.3,44.04-19.3,78.16Z"/></svg>